Coordinates
version=1
nRows=11
nColumns=42
inDegrees=yes

Units are S.I. units (second, meters, Newtons, ...)
If the header above contains a line with 'inDegrees', this indicates whether rotational values are in degrees (yes) or radians (no).

endheader
time	pelvis_tilt	pelvis_list	pelvis_rotation	pelvis_tx	pelvis_ty	pelvis_tz	hip_flexion_r	hip_adduction_r	hip_rotation_r	knee_angle_r	knee_adduction_r	knee_angle_r_beta	ankle_angle_r	subtalar_angle_r	mtp_angle_r	hip_flexion_l	hip_adduction_l	hip_rotation_l	knee_angle_l	knee_adduction_l	knee_angle_l_beta	ankle_angle_l	subtalar_angle_l	mtp_angle_l	lumbar_extension	lumbar_bending	lumbar_rotation	arm_flex_r	arm_add_r	arm_rot_r	elbow_flex_r	pro_sup_r	wrist_flex_r	wrist_dev_r	arm_flex_l	arm_add_l	arm_rot_l	elbow_flex_l	pro_sup_l	wrist_flex_l	wrist_dev_l
      0.00000000	     -4.71563486	     -1.15231977	      1.55622268	     -1.00099477	      1.64432626	     -0.58538917	      1.09842170	      1.75771210	     -0.59019815	      1.60613481	     -0.02448661	      0.02803234	      5.35486779	      0.00000000	      0.00000000	      1.26819216	     -2.49634257	     -0.52705804	      1.58409955	      0.19343284	      0.02764775	      5.37669612	      0.00000000	      0.00000000	      0.06717883	      0.03371705	     -0.00093231	    -12.46215508	     -6.48517338	      1.98734852	     38.46196137	     93.49385726	      0.00000000	      0.00000000	     -6.53977982	     -5.03030535	     -8.38778139	     36.52961386	     92.79725671	      0.00000000	      0.00000000
      0.01000000	     -4.79176033	     -1.16633756	      1.59576059	     -1.00102278	      1.64423256	     -0.58561036	      1.21300452	      1.76501213	     -0.81487146	      1.66591202	     -0.03044675	      0.02907565	      5.39146816	      0.00000000	      0.00000000	      1.37150088	     -2.49380879	     -0.52412811	      1.61240431	      0.19040626	      0.02814176	      5.40739434	      0.00000000	      0.00000000	      0.18729932	      0.02719013	     -0.07420752	    -12.42405727	     -6.47231014	      2.06622288	     38.36694228	     92.61210959	      0.00000000	      0.00000000	     -6.55940774	     -5.05668370	     -8.21831551	     36.53738763	     91.75974776	      0.00000000	      0.00000000
      0.02000000	     -4.84240923	     -1.21928219	      1.44466795	     -1.00130430	      1.64424967	     -0.58559724	      1.30519845	      1.81212644	     -0.62598982	      1.68149087	     -0.01906786	      0.02934755	      5.32693709	      0.00000000	      0.00000000	      1.41928141	     -2.54564204	     -0.66041759	      1.60882707	      0.18088182	      0.02807933	      5.36149968	      0.00000000	      0.00000000	      0.23336327	      0.08775741	      0.04076552	    -12.37329176	     -6.52626296	      2.14161172	     38.40255098	     91.97402916	      0.00000000	      0.00000000	     -6.58665331	     -5.07139973	     -8.04853291	     36.66072638	     91.00307570	      0.00000000	      0.00000000
      0.03000000	     -4.52141564	     -1.20111087	      1.51681859	     -1.00109009	      1.64457333	     -0.58546697	      0.88559539	      1.82615091	     -0.64475977	      1.56757204	     -0.04887954	      0.02735929	      5.20249572	      0.00000000	      0.00000000	      1.04581047	     -2.54765267	     -0.71006983	      1.54008209	      0.18494847	      0.02687950	      5.20079818	      0.00000000	      0.00000000	     -0.13696441	      0.04094197	     -0.01865424	    -12.41773231	     -6.50625509	      2.14145619	     38.58016487	     92.11677096	      0.00000000	      0.00000000	     -6.66703387	     -5.19915918	     -7.72607131	     36.93298062	     90.67258532	      0.00000000	      0.00000000
      0.04000000	     -4.70763750	     -1.23536317	      1.53178387	     -1.00127916	      1.64434913	     -0.58555173	      1.11323452	      1.86468718	     -0.71434885	      1.60111654	     -0.06823333	      0.02794476	      5.31027063	      0.00000000	      0.00000000	      1.28568044	     -2.57361719	     -0.69539509	      1.59558167	      0.17843566	      0.02784815	      5.30945994	      0.00000000	      0.00000000	      0.11374967	      0.05693440	     -0.00017951	    -12.41821486	     -6.46740162	      2.15912212	     38.46239099	     91.43287810	      0.00000000	      0.00000000	     -6.62076200	     -5.17593123	     -7.74117970	     36.84069619	     89.90051435	      0.00000000	      0.00000000
      0.05000000	     -4.55640447	     -1.23371671	      1.48897236	     -1.00124991	      1.64448847	     -0.58560375	      0.92164745	      1.84950801	     -0.65021704	      1.54015909	     -0.03547266	      0.02688085	      5.22077736	      0.00000000	      0.00000000	      1.08321543	     -2.56660559	     -0.70029958	      1.53763301	      0.16131370	      0.02683676	      5.21719750	      0.00000000	      0.00000000	     -0.07268699	      0.07484566	      0.04640591	    -12.50492325	     -6.46439600	      1.73917244	     38.44165664	     94.51640112	      0.00000000	      0.00000000	     -6.63468259	     -5.06243246	     -8.23867728	     36.66723170	     92.42257750	      0.00000000	      0.00000000
      0.06000000	     -4.56087233	     -1.23086041	      1.47237595	     -1.00131782	      1.64448665	     -0.58560023	      0.90640200	      1.82836298	     -0.58682646	      1.50173870	      0.00010176	      0.02621028	      5.25440211	      0.00000000	      0.00000000	      1.07223132	     -2.56473555	     -0.69429958	      1.51457187	      0.16820982	      0.02643427	      5.27916736	      0.00000000	      0.00000000	     -0.04426359	      0.06476638	      0.05805914	    -12.49990377	     -6.48670603	      1.95250570	     38.51998141	     93.10364008	      0.00000000	      0.00000000	     -6.64725239	     -5.09440955	     -8.04566533	     36.80248681	     91.05584780	      0.00000000	      0.00000000
      0.07000000	     -4.79867337	     -1.25207318	      1.36493680	     -1.00163583	      1.64427820	     -0.58574937	      1.22371749	      1.82681144	     -0.51766200	      1.58064084	      0.00831805	      0.02758739	      5.30633366	      0.00000000	      0.00000000	      1.34354515	     -2.56092009	     -0.76245927	      1.55450427	      0.16167324	      0.02713122	      5.37365788	      0.00000000	      0.00000000	      0.25320940	      0.10939528	      0.16056670	    -12.46807257	     -6.52475688	      2.03523979	     38.39986537	     92.14885843	      0.00000000	      0.00000000	     -6.59760071	     -4.99929670	     -8.05096944	     36.69166594	     90.03456610	      0.00000000	      0.00000000
      0.08000000	     -4.60968110	     -1.20868274	      1.47732337	     -1.00150299	      1.64440514	     -0.58568243	      0.95338614	      1.81969344	     -0.61955779	      1.48274256	     -0.04827979	      0.02587874	      5.22081315	      0.00000000	      0.00000000	      1.13353401	     -2.52292066	     -0.70897854	      1.52016546	      0.15325861	      0.02653189	      5.29100816	      0.00000000	      0.00000000	      0.02849306	      0.04770194	      0.04803096	    -12.53584129	     -6.45137417	      1.68361256	     38.35474910	     94.93881759	      0.00000000	      0.00000000	     -6.66856834	     -5.00211826	     -8.40330640	     36.63261528	     92.61485915	      0.00000000	      0.00000000
      0.09000000	     -4.95114250	     -1.21913336	      1.45279219	     -1.00173965	      1.64405222	     -0.58563336	      1.38868006	      1.83549499	     -0.68631216	      1.59574999	     -0.06368205	      0.02785109	      5.47409860	      0.00000000	      0.00000000	      1.56028475	     -2.52934672	     -0.77074575	      1.62931556	      0.17443940	      0.02843692	      5.55521941	      0.00000000	      0.00000000	      0.50164523	      0.04704352	      0.01329314	    -12.38039947	     -6.36628631	      1.77763753	     37.98736615	     92.70274951	      0.00000000	      0.00000000	     -6.58875468	     -4.97249058	     -8.26676564	     36.39207562	     90.41828877	      0.00000000	      0.00000000
      0.10000000	     -4.59875764	     -1.16562388	      1.45903637	     -1.00163051	      1.64443268	     -0.58575431	      0.93354942	      1.77169871	     -0.61206307	      1.45585361	     -0.05499641	      0.02540944	      5.22045829	      0.00000000	      0.00000000	      1.10950616	     -2.46437425	     -0.71445056	      1.49884471	      0.13891548	      0.02615978	      5.31745467	      0.00000000	      0.00000000	      0.04626921	      0.02366264	      0.09515395	    -12.58918426	     -6.37785195	      1.41687691	     38.36384180	     95.05392653	      0.00000000	      0.00000000	     -6.62804513	     -4.90690793	     -8.59253078	     36.48069339	     92.97131537	      0.00000000	      0.00000000
